<?xml version="1.0" encoding="UTF-8"?>
<svg version="1.1" xmlns="http://www.w3.org/2000/svg" width="2000" height="2000">
<path d="M0 0 C660 0 1320 0 2000 0 C2000 660 2000 1320 2000 2000 C1340 2000 680 2000 0 2000 C0 1340 0 680 0 0 Z " fill="#000000" transform="translate(0,0)"/>
<path d="M0 0 C1.57538282 -0.00087421 3.15076534 -0.00262915 4.72614634 -0.00517833 C9.01574997 -0.0096135 13.30525218 -0.00170147 17.59484291 0.00837779 C22.23540344 0.01706576 26.87595888 0.01408837 31.51652527 0.01257324 C39.54356603 0.01152775 47.57057412 0.01776909 55.59760666 0.02904892 C67.20314959 0.04534671 78.80867681 0.0505163 90.41422994 0.0530249 C109.24634656 0.05739531 128.07844579 0.07068661 146.91055298 0.08963013 C165.19733595 0.1080059 183.48411419 0.12215409 201.77090454 0.13064575 C202.89929774 0.1311712 204.02769093 0.13169665 205.19027786 0.13223802 C210.85145195 0.13484821 216.51262608 0.1373756 222.17380023 0.13986182 C269.09192256 0.16057393 316.01002593 0.19578158 362.9281311 0.24050903 C363.89764402 2.16677259 364.8657042 4.09376738 365.83314514 6.02107239 C366.64200999 7.630598 366.64200999 7.630598 367.46721554 9.27263927 C368.97041066 12.32640052 370.31099043 15.39315671 371.52578735 18.57254028 C372.13547363 20.15905396 372.13547363 20.15905396 372.75747681 21.77761841 C373.16441772 22.85849731 373.57135864 23.93937622 373.9906311 25.05300903 C374.4239978 26.19447388 374.8573645 27.33593872 375.30386353 28.51199341 C384.80081335 53.6845453 391.88115511 79.4673393 396.1156311 106.05300903 C396.27039917 106.99789185 396.42516724 107.94277466 396.58462524 108.91629028 C399.4730854 128.01562444 400.26533914 147.3062347 400.18887329 166.59768677 C400.1781201 169.80629294 400.18887582 173.01434103 400.2015686 176.22293091 C400.21763575 196.66842722 398.76031333 216.8040964 395.1156311 236.92800903 C394.84939877 238.43548936 394.58320474 239.94297645 394.31704712 241.45046997 C391.33959084 258.11277986 387.57856382 274.27347982 381.9281311 290.24050903 C381.46197513 291.63286567 380.99863903 293.02616826 380.5375061 294.42019653 C370.84993246 323.51347763 358.70737097 352.44381267 341.9281311 378.24050903 C341.39091431 379.07179321 340.85369751 379.90307739 340.30020142 380.759552 C330.19890014 396.31823033 319.33618108 411.00981531 307.5218811 425.30593872 C306.09436851 427.03872208 304.68214752 428.78276427 303.2718811 430.52957153 C296.60920846 438.65450983 289.2694697 446.11016927 281.8656311 453.55300903 C281.35865692 454.06525024 280.85168274 454.57749146 280.3293457 455.10525513 C274.30189737 461.18106924 268.15213146 466.86705795 261.4515686 472.21121216 C259.18658184 474.03266824 257.00521844 475.90998458 254.83828735 477.84597778 C250.52497337 481.65506701 245.97744118 485.11511425 241.3656311 488.55300903 C240.48866577 489.20744995 239.61170044 489.86189087 238.7081604 490.53616333 C225.94870783 499.99497545 212.73328493 508.39787085 198.9281311 516.24050903 C198.07171021 516.73421997 197.21528931 517.22793091 196.33291626 517.73660278 C179.43873627 527.43360214 162.0100418 535.10367001 143.9281311 542.24050903 C142.32614868 542.88246216 142.32614868 542.88246216 140.69180298 543.53738403 C97.60987048 560.64793878 50.78085077 567.91999033 4.6156311 567.61550903 C3.37798004 567.611521 2.14032898 567.60753296 0.86517334 567.60342407 C-17.95709393 567.53250016 -36.4248549 566.92229399 -55.0718689 564.24050903 C-56.08088257 564.10660767 -57.08989624 563.9727063 -58.12948608 563.83474731 C-101.74896801 557.97191372 -142.85169805 542.76481683 -182.0718689 523.24050903 C-182.92909546 522.8165686 -183.78632202 522.39262817 -184.66952515 521.95584106 C-210.1531591 509.27026806 -233.69104122 492.99829651 -255.0718689 474.24050903 C-256.25716187 473.22150513 -256.25716187 473.22150513 -257.46640015 472.18191528 C-261.15528823 468.99947936 -264.63188804 465.6938504 -268.0718689 462.24050903 C-267.4677307 462.23953222 -266.86359251 462.23855542 -266.2411471 462.23754901 C-230.33259999 462.17911396 -194.42411663 462.10519523 -158.51564375 462.01152275 C-154.19169369 462.00025632 -149.86774332 461.98911759 -145.54379272 461.97805786 C-144.6830722 461.97585418 -143.82235168 461.97365049 -142.93554872 461.97138003 C-129.04941528 461.93613129 -115.16328189 461.91119733 -101.27712048 461.89016201 C-86.99925763 461.86830045 -72.72145219 461.8351532 -58.44363827 461.79180747 C-49.65311512 461.76546783 -40.86266331 461.74764278 -32.07210272 461.74116299 C-26.02141064 461.73585436 -19.97080787 461.71945763 -13.92016388 461.69484337 C-10.44369101 461.6810128 -6.96737725 461.67158656 -3.49087524 461.67550087 C17.80416236 461.68493551 38.79969112 460.3394725 59.6781311 455.92800903 C60.70430542 455.71491089 61.73047974 455.50181274 62.78775024 455.28225708 C117.17511389 443.67194372 166.10059236 416.82018756 205.9281311 378.24050903 C206.8577063 377.34380493 206.8577063 377.34380493 207.80606079 376.4289856 C215.38641795 369.08687957 222.45782461 361.59848293 228.9281311 353.24050903 C229.70285767 352.27113403 230.47758423 351.30175903 231.27578735 350.30300903 C260.38216439 313.40110471 280.15854074 269.51185612 289.2406311 223.42800903 C289.38798706 222.69042358 289.53534302 221.95283813 289.68716431 221.19290161 C292.64765609 204.96482804 293.27855848 188.57275638 293.24380493 172.11502075 C293.2406476 169.00675207 293.2642156 165.89944236 293.28945923 162.79129028 C293.34282285 145.80392627 291.94700397 129.04664227 288.30918884 112.4291687 C287.9281311 110.24050903 287.9281311 110.24050903 287.9281311 106.24050903 C250.07554218 106.25362424 212.22306679 106.29299614 174.3705469 106.36736466 C169.89722897 106.37613094 165.42391065 106.38468083 160.95059204 106.39309692 C159.61480983 106.39561552 159.61480983 106.39561552 158.25204213 106.39818499 C143.85083994 106.42482269 129.44967756 106.43394776 115.04845326 106.43655046 C100.26098788 106.43961469 85.4736372 106.46161559 70.68622363 106.5010336 C61.56855645 106.52474611 52.45111854 106.53385546 43.33342482 106.52402214 C37.07298986 106.51868825 30.81275952 106.53182161 24.55238281 106.55917194 C20.94552539 106.57439372 17.33912617 106.58176586 13.73225594 106.56710625 C-6.29029823 106.15085645 -6.29029823 106.15085645 -25.0718689 112.24050903 C-26.46821532 112.95526791 -26.46821532 112.95526791 -27.89277077 113.68446636 C-43.53867747 122.09673326 -53.9465082 136.18521097 -59.3843689 152.80300903 C-62.6291456 164.92475615 -62.13651351 177.3743691 -58.0718689 189.24050903 C-57.7315564 190.23566528 -57.3912439 191.23082153 -57.0406189 192.25613403 C-50.93132015 208.35496182 -40.03593795 219.21781467 -25.0718689 227.24050903 C-16.77869544 230.95005192 -9.02071273 232.35054544 0.07191467 232.39872742 C0.75576534 232.40366539 1.439616 232.40860337 2.14418942 232.41369098 C4.41648739 232.42894666 6.68875737 232.43739391 8.96109009 232.4458313 C10.59757225 232.45541923 12.23405198 232.46542984 13.87052917 232.47583008 C18.29970987 232.50278611 22.72890112 232.52384584 27.15811801 232.54383206 C31.79192941 232.56574921 36.42570862 232.59310979 41.05949402 232.61988831 C49.82823676 232.6697379 58.59699744 232.71470532 67.36577517 232.75791067 C77.35125849 232.80734926 87.33670951 232.86224277 97.32216156 232.91759026 C117.85745462 233.03129154 138.39277855 233.13815626 158.9281311 233.24050903 C158.47107567 234.65599931 158.01009191 236.07022144 157.54751587 237.48391724 C157.29123917 238.27159988 157.03496246 239.05928253 156.7709198 239.87083435 C155.45727482 243.56441884 153.71743748 246.97938174 151.8656311 250.42800903 C151.4735144 251.15995483 151.08139771 251.89190063 150.67739868 252.64602661 C129.48184921 291.31647398 92.38238586 320.06026606 50.46890259 333.01541138 C6.42503606 345.56824408 -40.4807232 340.12111166 -80.59066772 318.33816528 C-91.94153137 311.96080796 -102.20346709 304.38785744 -111.67733765 295.48269653 C-113.67558576 293.61158003 -115.70696053 291.85057798 -117.8218689 290.11550903 C-149.04804193 263.46622188 -164.73304399 218.96448007 -168.0718689 179.24050903 C-169.93090569 150.09984467 -164.03148966 121.33905829 -151.0718689 95.24050903 C-150.74960327 94.57970337 -150.42733765 93.91889771 -150.0953064 93.23806763 C-130.73383734 53.8559738 -95.04995932 22.85089143 -53.6890564 8.40847778 C-48.86102844 6.83412084 -43.99264976 5.49191451 -39.0718689 4.24050903 C-38.2262439 4.01879028 -37.3806189 3.79707153 -36.5093689 3.56863403 C-24.46245693 0.64548628 -12.34283455 -0.05164078 0 0 Z " fill="#FE741E" transform="translate(998.0718688964844,678.7594909667969)"/>
<path d="M0 0 C1.26650391 0.23025879 2.53300781 0.46051758 3.83789062 0.69775391 C18.40868666 3.39853174 32.85371168 6.57011156 47 11 C48.0513916 11.32419922 49.1027832 11.64839844 50.18603516 11.98242188 C107.06682117 29.68322396 156.55144683 59.04417518 201.9765625 97.328125 C202.55744629 97.81700195 203.13833008 98.30587891 203.73681641 98.80957031 C204.15366699 99.20241211 204.57051758 99.59525391 205 100 C205 100.33 205 100.66 205 101 C204.10274499 101.00146521 204.10274499 101.00146521 203.18736362 101.00296003 C167.63794805 101.061388 132.08859689 101.13530152 96.53925633 101.22898628 C92.25908133 101.24025279 87.97890601 101.25139151 83.69873047 101.26245117 C82.84671948 101.26465486 81.99470849 101.26685854 81.11687899 101.269129 C67.3691004 101.30438308 53.62132187 101.32931405 39.87351501 101.35034702 C25.73916818 101.37220428 11.60487938 101.40534759 -2.52941799 101.44870156 C-11.2324222 101.47504849 -19.93535428 101.49286823 -28.63839632 101.49934604 C-34.6278762 101.50465239 -40.61726576 101.5210418 -46.60669702 101.54566566 C-50.04861696 101.55950379 -53.49037596 101.56891948 -56.93232536 101.56500816 C-72.7017617 101.55795563 -87.99108811 102.34197578 -103.59791946 104.65545022 C-106.95411258 105.13685606 -110.31731519 105.50515732 -113.6875 105.875 C-165.97437385 113.1802068 -217.34595811 138.74475113 -256.50830078 173.67138672 C-257.84913341 174.86562749 -259.20307367 176.04511285 -260.55859375 177.22265625 C-271.95705278 187.23608085 -282.73193112 197.9756281 -292 210 C-292.79664063 211.00289062 -293.59328125 212.00578125 -294.4140625 213.0390625 C-325.50429836 252.3905738 -345.75777387 299.60577618 -354 349 C-354.17950195 349.9799292 -354.35900391 350.9598584 -354.54394531 351.96948242 C-356.45773715 363.85079841 -356.30234611 375.74608853 -356.26074219 387.7512207 C-356.25003319 391.42611226 -356.26068007 395.10051399 -356.2734375 398.77539062 C-356.2812049 411.01934925 -356.01495144 422.90940136 -354 435 C-353.84337891 436.0319751 -353.68675781 437.0639502 -353.52539062 438.12719727 C-353.08909312 440.945108 -352.61442108 443.75338482 -352.125 446.5625 C-351.97675781 447.46162109 -351.82851563 448.36074219 -351.67578125 449.28710938 C-347.30991402 474.54169907 -338.41381748 500.07522617 -327 523 C-326.60844727 523.7940625 -326.21689453 524.588125 -325.81347656 525.40625 C-320.30985499 536.47558073 -314.10696388 546.92962098 -307.19165039 557.17333984 C-305.7326654 559.40979256 -304.37384413 561.71025978 -303 564 C-343.59 564 -384.18 564 -426 564 C-440.06281209 531.18677179 -440.06281209 531.18677179 -443.3125 521.5 C-443.71291504 520.31897705 -444.11333008 519.1379541 -444.52587891 517.92114258 C-451.1132832 498.03899097 -455.62408866 477.81228106 -458.63037109 457.09936523 C-458.97904157 454.81798218 -458.97904157 454.81798218 -460 452 C-463.28432808 433.61147385 -463.28270164 414.92236267 -463.25 396.3125 C-463.24904327 395.19674591 -463.24808655 394.08099182 -463.24710083 392.931427 C-463.07149746 304.74373929 -434.90728423 221.04279788 -381 151 C-380.58814453 150.45666016 -380.17628906 149.91332031 -379.75195312 149.35351562 C-373.10028668 140.58131792 -365.95358207 132.47341373 -358.38623047 124.48339844 C-356.64171476 122.61660072 -354.97098932 120.69335924 -353.3125 118.75 C-347.40196622 111.91777407 -340.90331798 105.62778569 -334.0390625 99.76171875 C-331.7730777 97.80394261 -329.57856506 95.77771052 -327.375 93.75 C-321.72695226 88.65551283 -315.77450494 84.00047054 -309.75390625 79.35986328 C-308.09602413 78.07445078 -306.45244726 76.77301864 -304.8125 75.46484375 C-296.2451153 68.70731907 -287.25183224 62.77662512 -278 57 C-277.40558105 56.62552734 -276.81116211 56.25105469 -276.19873047 55.86523438 C-271.85695462 53.1408852 -267.45058079 50.54237529 -263 48 C-261.67742187 47.24444824 -261.67742187 47.24444824 -260.328125 46.47363281 C-226.05763608 27.08194239 -190.34980174 13.115129 -151.85327148 4.63842773 C-149.89055599 4.19926447 -147.9318325 3.74199394 -145.97680664 3.26977539 C-100.1789197 -7.74472759 -46.34527376 -8.66550643 0 0 Z " fill="#FE741E" transform="translate(1065,454)"/>
<path d="M0 0 C7.7857068 5.71428022 13.91142917 11.98879978 17.1875 21.25 C17.1875 22.57 17.1875 23.89 17.1875 25.25 C12.77117823 25.39509751 8.35546807 25.48400818 3.9375 25.5625 C2.68324219 25.60439453 1.42898438 25.64628906 0.13671875 25.68945312 C-1.67119141 25.71362305 -1.67119141 25.71362305 -3.515625 25.73828125 C-5.18093262 25.77755737 -5.18093262 25.77755737 -6.87988281 25.81762695 C-10.75702772 25.06718057 -11.65119105 23.44614709 -13.8125 20.25 C-20.13215854 15.80330478 -27.323849 15.26281432 -34.8125 16.25 C-42.59199467 18.44421645 -47.4779475 22.66614808 -51.625 29.5625 C-55.63055047 38.05528106 -55.02493049 48.48189669 -52.3125 57.3125 C-49.46731399 63.99818443 -44.70704262 67.45538358 -38.6875 71.1875 C-31.64669166 73.77128288 -22.62380732 73.39492312 -15.75 70.5625 C-9.55088302 67.28467377 -6.96765561 63.56031122 -3.8125 57.25 C-18.6625 56.755 -18.6625 56.755 -33.8125 56.25 C-33.8125 49.98 -33.8125 43.71 -33.8125 37.25 C-15.9925 37.25 1.8275 37.25 20.1875 37.25 C20.1875 65.35147601 20.1875 65.35147601 13.1875 74.25 C12.48882813 75.16910156 11.79015625 76.08820313 11.0703125 77.03515625 C2.83569303 86.98410042 -8.96109318 93.57580928 -21.8125 95.25 C-37.91013821 96.19906711 -51.32105439 93.28015927 -64.0625 83.0625 C-73.68218092 74.11304275 -79.33532268 61.37142804 -80.015625 48.3671875 C-80.31344324 32.31139135 -77.43517342 18.81421234 -65.9375 6.875 C-61.83440662 3.01613837 -57.89834515 -0.30470334 -52.8125 -2.75 C-52.03519531 -3.14058594 -51.25789062 -3.53117187 -50.45703125 -3.93359375 C-35.08592582 -10.34376614 -14.10733306 -8.70705548 0 0 Z " fill="#FA721E" transform="translate(912.8125,1421.75)"/>
<path d="M0 0 C8.25 0 16.5 0 25 0 C25.03738281 3.53976562 25.07476563 7.07953125 25.11328125 10.7265625 C25.15951734 14.1620088 25.21074357 17.59734705 25.26245117 21.03271484 C25.29566646 23.41676241 25.32370892 25.80088797 25.34643555 28.18505859 C25.38004318 31.61589739 25.43236407 35.04602363 25.48828125 38.4765625 C25.49467117 39.53928375 25.5010611 40.602005 25.50764465 41.69692993 C25.61630921 47.18986671 25.86327805 51.280255 29 56 C32.92069738 59.6756538 37.2948878 59.44603717 42.41015625 59.28125 C47.08617731 58.77344681 49.07364673 57.06199631 52.09082031 53.60302734 C55.08203309 48.98768087 54.60321938 43.80092142 54.609375 38.4765625 C54.62591125 37.37524994 54.64244751 36.27393738 54.65948486 35.13925171 C54.70792653 31.63444418 54.72932821 28.13007048 54.75 24.625 C54.77816274 22.2434678 54.80809059 19.86195578 54.83984375 17.48046875 C54.91699595 11.65344698 54.95755433 5.82779077 55 0 C63.25 0 71.5 0 80 0 C80 26.4 80 52.8 80 80 C71.75 80 63.5 80 55 80 C54.505 75.545 54.505 75.545 54 71 C52.6078125 72.36125 52.6078125 72.36125 51.1875 73.75 C44.1740295 79.69314167 36.00715608 81.72830094 26.92578125 81.38671875 C19.4583131 80.39969693 13.23942266 77.3612697 8 72 C2.39626859 64.32023439 -0.13639051 57.01123388 -0.11352539 47.45361328 C-0.11344986 46.39296661 -0.11337433 45.33231995 -0.11329651 44.23953247 C-0.10813522 43.11118988 -0.10297394 41.98284729 -0.09765625 40.8203125 C-0.09553383 39.06846146 -0.09553383 39.06846146 -0.09336853 37.28121948 C-0.08778498 33.56245326 -0.07523544 29.84374793 -0.0625 26.125 C-0.05748288 23.5989592 -0.05292034 21.07291746 -0.04882812 18.546875 C-0.03867317 12.36454118 -0.01909439 6.1823385 0 0 Z " fill="#F9721E" transform="translate(945,1436)"/>
<path d="M0 0 C8.25 0 16.5 0 25 0 C25.33 2.64 25.66 5.28 26 8 C26.51949219 7.59007812 27.03898437 7.18015625 27.57421875 6.7578125 C28.27160156 6.21898437 28.96898437 5.68015625 29.6875 5.125 C30.37199219 4.59132813 31.05648438 4.05765625 31.76171875 3.5078125 C39.79048278 -1.90074407 50.89519344 -1.13844328 60.12109375 0.58203125 C67.96997902 3.26363168 72.79476993 9.30090439 76.9375 16.25 C78.68224909 20.76582117 79.12441106 24.88590126 79.11352539 29.70825195 C79.11341209 31.38942863 79.11341209 31.38942863 79.11329651 33.10456848 C79.10813522 34.3036937 79.10297394 35.50281891 79.09765625 36.73828125 C79.0962413 37.97418503 79.09482635 39.21008881 79.09336853 40.48344421 C79.08872618 43.75658345 79.07975311 47.02967287 79.06866455 50.30279541 C79.05840404 53.64782248 79.05394631 56.99285173 79.04882812 60.33789062 C79.03780907 66.89194901 79.02054953 73.44596484 79 80 C71.08 80 63.16 80 55 80 C54.97421875 76.46023438 54.9484375 72.92046875 54.921875 69.2734375 C54.88344178 65.83797314 54.83828544 62.4026582 54.79248047 58.96728516 C54.76428805 56.58324337 54.74306497 54.19910842 54.72900391 51.81494141 C54.70755131 48.38395548 54.66088636 44.95408776 54.609375 41.5234375 C54.60814636 40.46071625 54.60691772 39.397995 54.60565186 38.30307007 C54.48629427 32.24649572 54.08500705 28.58885575 50 24 C45.22019011 20.74103871 41.59763066 20.5557436 36 21 C32.03181757 21.92283312 29.64187371 23.81396583 27.07852173 26.987854 C24.81095475 31.2183444 25.27596898 36.05377835 25.29296875 40.7421875 C25.27784744 41.86569611 25.26272614 42.98920471 25.24714661 44.14675903 C25.20427747 47.72304365 25.19543179 51.29848405 25.1875 54.875 C25.16435528 57.30470993 25.13899001 59.7343998 25.11132812 62.1640625 C25.04431635 68.10983442 25.02334553 74.05325591 25 80 C16.75 80 8.5 80 0 80 C0 53.6 0 27.2 0 0 Z " fill="#FB731E" transform="translate(1042,1436)"/>
<path d="M0 0 C7.92 0 15.84 0 24 0 C24 26.4 24 52.8 24 80 C16.08 80 8.16 80 0 80 C0 53.6 0 27.2 0 0 Z " fill="#FE741E" transform="translate(1139,1436)"/>
<path d="M0 0 C3.54273558 1.96684981 6.18131401 4.36262803 8 8 C8.43540712 12.26196588 8.47065428 15.91749516 6.75 19.875 C3.71052754 23.56578799 0.80208482 25.67442443 -4.05078125 26.23828125 C-9.57364901 26.41951525 -12.70071475 25.79936836 -17 22 C-19.75374623 18.73898473 -20.89487343 16.73588601 -21.5 12.5 C-20.8994841 8.29638867 -19.72285832 6.23799368 -17 3 C-11.62048751 -0.86623625 -6.42627328 -1.07811982 0 0 Z " fill="#F9721E" transform="translate(1157,1402)"/>
</svg>
